<svg width="33" height="32" viewBox="0 0 33 32" fill="none" xmlns="http://www.w3.org/2000/svg">
<path d="M14.5157 27.8333C15.0502 27.8333 15.5629 27.6138 15.9409 27.2231C16.3189 26.8324 16.5312 26.3025 16.5312 25.75C16.5312 25.1975 16.3189 24.6676 15.9409 24.2769C15.5629 23.8862 15.0502 23.6667 14.5157 23.6667C13.9811 23.6667 13.4684 23.8862 13.0904 24.2769C12.7124 24.6676 12.5001 25.1975 12.5001 25.75C12.5001 26.3025 12.7124 26.8324 13.0904 27.2231C13.4684 27.6138 13.9811 27.8333 14.5157 27.8333ZM7.46112 27.8333C7.99568 27.8333 8.50835 27.6138 8.88635 27.2231C9.26434 26.8324 9.4767 26.3025 9.4767 25.75C9.4767 25.1975 9.26434 24.6676 8.88635 24.2769C8.50835 23.8862 7.99568 23.6667 7.46112 23.6667C6.92655 23.6667 6.41388 23.8862 6.03588 24.2769C5.65789 24.6676 5.44553 25.1975 5.44553 25.75C5.44553 26.3025 5.65789 26.8324 6.03588 27.2231C6.41388 27.6138 6.92655 27.8333 7.46112 27.8333ZM20.6007 13.1698C20.8523 13.1614 21.0908 13.0522 21.2659 12.8653C21.441 12.6784 21.5389 12.4284 21.5389 12.1682C21.5389 11.9081 21.441 11.6581 21.2659 11.4712C21.0908 11.2843 20.8523 11.1751 20.6007 11.1667H19.4407C18.5317 11.1667 17.7456 11.8188 17.5481 12.7354L16.2853 18.6125C16.0878 19.5292 15.3017 20.1813 14.3927 20.1813H6.82218L5.36894 14.1708H14.7868C15.036 14.1591 15.2712 14.0485 15.4435 13.862C15.6159 13.6756 15.7121 13.4277 15.7121 13.1698C15.7121 12.9119 15.6159 12.664 15.4435 12.4776C15.2712 12.2911 15.036 12.1805 14.7868 12.1688H5.36894C5.07433 12.1687 4.78358 12.238 4.51878 12.3715C4.25399 12.505 4.02213 12.6991 3.84082 12.9392C3.65952 13.1792 3.53354 13.4588 3.47248 13.7567C3.41141 14.0546 3.41686 14.3629 3.4884 14.6583L4.94164 20.6667C5.0464 21.1002 5.28841 21.4851 5.62916 21.7601C5.96992 22.0351 6.38985 22.1845 6.82218 22.1844H14.3927C15.2747 22.1845 16.1304 21.8737 16.8184 21.3032C17.5065 20.7328 17.9857 19.9369 18.177 19.0469L19.4407 13.1698H20.6007Z" fill="black"/>
<ellipse cx="24.5935" cy="9" rx="7.73984" ry="8" fill="#0156FF"/>
<path d="M22.127 10.63C22.3537 10.45 22.457 10.3667 22.437 10.38C23.0904 9.84 23.6037 9.39667 23.977 9.05C24.357 8.70333 24.677 8.34 24.937 7.96C25.197 7.58 25.327 7.21 25.327 6.85C25.327 6.57667 25.2637 6.36333 25.137 6.21C25.0104 6.05667 24.8204 5.98 24.567 5.98C24.3137 5.98 24.1137 6.07667 23.967 6.27C23.827 6.45667 23.757 6.72333 23.757 7.07H22.107C22.1204 6.50333 22.2404 6.03 22.467 5.65C22.7004 5.27 23.0037 4.99 23.377 4.81C23.757 4.63 24.177 4.54 24.637 4.54C25.4304 4.54 26.027 4.74333 26.427 5.15C26.8337 5.55667 27.037 6.08667 27.037 6.74C27.037 7.45333 26.7937 8.11667 26.307 8.73C25.8204 9.33667 25.2004 9.93 24.447 10.51H27.147V11.9H22.127V10.63Z" fill="white"/>
</svg>
