<svg width="18" height="19" viewBox="0 0 18 19" fill="none" xmlns="http://www.w3.org/2000/svg">
<path d="M9.09924 1.11121C10.5486 1.13662 11.9454 1.7052 13.0358 2.72058C14.1987 3.80349 14.9264 5.31296 15.0719 6.94031L15.0914 7.245C15.1574 8.74017 14.7259 10.2152 13.8688 11.4149L17.028 14.7489L17.0836 14.8143C17.1361 14.882 17.1789 14.9573 17.2106 15.038L17.2389 15.12C17.2629 15.2035 17.275 15.2904 17.275 15.3778C17.275 15.4652 17.2629 15.5521 17.2389 15.6356L17.2106 15.7177C17.1789 15.7983 17.1362 15.8737 17.0836 15.9413L17.028 16.0067C16.969 16.0689 16.9014 16.1214 16.8278 16.163L16.7516 16.201C16.6481 16.2463 16.5368 16.2694 16.4244 16.2694C16.3402 16.2694 16.2566 16.257 16.1764 16.2313L16.0973 16.201C16.0196 16.1671 15.9478 16.1211 15.8834 16.0653L15.8209 16.0067L12.6686 12.6776C11.5324 13.5815 10.1351 14.0394 8.71643 13.9706L8.42639 13.9491C6.97589 13.8055 5.6265 13.1194 4.6178 12.0223L4.42053 11.7977C3.39429 10.5697 2.85106 8.97559 2.90002 7.3407L2.91565 7.03503C3.03011 5.51275 3.65478 4.07808 4.6842 2.99304L4.89514 2.7821C5.96688 1.75505 7.35404 1.16069 8.8092 1.11316L9.09924 1.11121ZM8.79163 2.92468C7.71158 2.98559 6.68654 3.46552 5.91663 4.2782C5.09522 5.14524 4.63133 6.32132 4.62659 7.54968C4.62191 8.77796 5.07657 9.95787 5.89124 10.8319L6.04846 10.9911C6.42163 11.3537 6.85114 11.6462 7.31897 11.8544L7.52209 11.9384C7.9981 12.1214 8.50101 12.2164 9.00842 12.2186L9.22522 12.2137C9.73123 12.1895 10.2302 12.0731 10.6998 11.869C11.2365 11.6357 11.7244 11.2921 12.1354 10.8583L12.2858 10.6923C12.6266 10.2951 12.9004 9.83776 13.0944 9.3407L13.1725 9.12585C13.3424 8.62056 13.4284 8.08724 13.4264 7.54968C13.4243 7.01205 13.3337 6.47934 13.1598 5.97546L13.0807 5.76062C12.8829 5.26532 12.6051 4.81101 12.2614 4.41687L12.11 4.25183C11.2821 3.39213 10.1673 2.91387 9.00842 2.91882L8.79163 2.92468Z" fill="black" stroke="black" stroke-width="0.2"/>
</svg>
